#N canvas 159 121 1052 588 10;
#X floatatom 467 388 3 0 0 0 - - -, f 3;
#X obj 416 311 notein;
#X obj 416 362 stripnote;
#X floatatom 416 387 3 0 0 0 - - -, f 3;
#X floatatom 343 338 3 0 0 0 - - -, f 3;
#X floatatom 313 338 3 0 0 0 - - -, f 3;
#X obj 313 311 ctlin;
#X obj 416 407 bng 20 250 50 0 empty empty empty 17 7 0 10 -262144
-1 -1;
#X obj 313 360 bng 20 250 50 0 empty empty empty 17 7 0 10 -262144
-1 -1;
#X obj 17 349 vsl 15 128 0 127 0 0 empty bs-1 empty 0 -9 0 10 -262144
-1 -1 100 1;
#X obj 47 349 vsl 15 128 0 127 0 0 empty bs-2 empty 0 -9 0 10 -262144
-1 -1 100 1;
#X obj 77 349 vsl 15 128 0 127 0 0 empty bs-3 empty 0 -9 0 10 -262144
-1 -1 0 1;
#X obj 107 349 vsl 15 128 0 127 0 0 empty bs-4 empty 0 -9 0 10 -262144
-1 -1 0 1;
#X obj 137 349 vsl 15 128 0 127 0 0 empty bs-5 empty 0 -9 0 10 -262144
-1 -1 0 1;
#X obj 167 349 vsl 15 128 0 127 0 0 empty bs-6 empty 0 -9 0 10 -262144
-1 -1 0 1;
#X obj 197 349 vsl 15 128 0 127 0 0 empty bs-7 empty 0 -9 0 10 -262144
-1 -1 0 1;
#X obj 227 349 vsl 15 128 0 127 0 0 empty bs-8 empty 0 -9 0 10 -262144
-1 -1 0 1;
#X obj 257 349 vsl 15 128 0 127 0 0 empty bs-9 empty 0 -9 0 10 -262144
-1 -1 0 1;
#X obj 315 466 hsl 128 15 0 127 0 0 empty bs-10 empty -2 -8 0 10 -262144
-1 -1 0 1;
#X floatatom 373 338 5 0 0 0 - - -, f 5;
#X floatatom 17 483 4 0 0 0 - - -, f 4;
#X floatatom 47 483 4 0 0 0 - - -, f 4;
#X floatatom 77 483 4 0 0 0 - - -, f 4;
#X floatatom 107 483 4 0 0 0 - - -, f 4;
#X floatatom 137 483 4 0 0 0 - - -, f 4;
#X floatatom 167 483 4 0 0 0 - - -, f 4;
#X floatatom 197 483 4 0 0 0 - - -, f 4;
#X floatatom 227 483 4 0 0 0 - - -, f 4;
#X floatatom 257 483 4 0 0 0 - - -, f 4;
#X floatatom 312 484 4 0 0 0 - - -, f 4;
#X obj 17 322 tgl 15 0 empty r-1 empty 17 7 0 10 -228856 -258113 -258113
0 1;
#X obj 47 322 tgl 15 0 empty r-2 empty 17 7 0 10 -228856 -258113 -258113
0 1;
#X obj 77 322 tgl 15 0 empty r-3 empty 17 7 0 10 -228856 -258113 -258113
0 1;
#X obj 107 322 tgl 15 0 empty r-4 empty 17 7 0 10 -228856 -258113 -258113
0 1;
#X obj 137 322 tgl 15 0 empty r-5 empty 17 7 0 10 -228856 -258113 -258113
0 1;
#X obj 167 322 tgl 15 0 empty r-6 empty 17 7 0 10 -228856 -258113 -258113
0 1;
#X obj 197 322 tgl 15 0 empty r-7 empty 17 7 0 10 -228856 -258113 -258113
0 1;
#X obj 227 322 tgl 15 0 empty r-8 empty 17 7 0 10 -228856 -258113 -258113
0 1;
#X obj 17 302 tgl 15 0 empty b-1 empty 17 7 0 10 -228856 -4160 -4160
0 1;
#X obj 17 282 tgl 15 0 empty g-1 empty 17 7 0 10 -128992 -4034 -4034
0 1;
#X obj 47 282 tgl 15 0 empty g-2 empty 17 7 0 10 -128992 -4034 -4034
0 1;
#X obj 77 282 tgl 15 0 empty g-3 empty 17 7 0 10 -128992 -4034 -4034
0 1;
#X obj 107 282 tgl 15 0 empty g-4 empty 17 7 0 10 -128992 -4034 -4034
0 1;
#X obj 137 282 tgl 15 0 empty g-5 empty 17 7 0 10 -128992 -4034 -4034
0 1;
#X obj 167 282 tgl 15 0 empty g-6 empty 17 7 0 10 -128992 -4034 -4034
0 1;
#X obj 197 282 tgl 15 0 empty g-7 empty 17 7 0 10 -128992 -4034 -4034
0 1;
#X obj 227 282 tgl 15 0 empty g-8 empty 17 7 0 10 -128992 -4034 -4034
0 1;
#X obj 47 302 tgl 15 0 empty b-2 empty 17 7 0 10 -228856 -4160 -4160
0 1;
#X obj 77 302 tgl 15 0 empty b-3 empty 17 7 0 10 -228856 -4160 -4160
0 1;
#X obj 107 302 tgl 15 0 empty b-4 empty 17 7 0 10 -228856 -4160 -4160
0 1;
#X obj 137 302 tgl 15 0 empty b-5 empty 17 7 0 10 -228856 -4160 -4160
0 1;
#X obj 167 302 tgl 15 0 empty b-6 empty 17 7 0 10 -228856 -4160 -4160
0 1;
#X obj 197 302 tgl 15 0 empty b-7 empty 17 7 0 10 -228856 -4160 -4160
0 1;
#X obj 227 302 tgl 15 0 empty b-8 empty 17 7 0 10 -228856 -4160 -4160
0 1;
#X obj 17 241 hradio 30 1 0 9 empty green-toggler empty 0 -8 0 10 -262144
-4034 -4034 0;
#N canvas 76 25 1201 686 left-buttons 0;
#X obj 19 20 notein;
#X floatatom 19 47 4 0 0 0 - - -, f 4;
#X floatatom 82 47 4 0 0 0 - - -, f 4;
#X floatatom 52 47 4 0 0 0 - - -, f 4;
#X obj 19 96 pack f f f, f 11;
#X obj 19 320 route 1 2 3 4 5 6 7 8;
#X obj 19 347 _sender r 1;
#X obj 30 71 bng 15 250 50 0 empty empty empty 17 7 0 10 -262144 -1
-1;
#X obj 99 347 route 1 2 3 4 5 6 7 8;
#X obj 179 374 route 1 2 3 4 5 6 7 8;
#X obj 319 374 route 1 2 3 4 5 6 7 8;
#X obj 319 296 unpack f f;
#X obj 319 323 stripnote;
#X floatatom 319 350 5 0 0 0 - - -, f 5;
#X obj 319 401 send gb-1;
#X obj 319 429 send gb-2;
#X obj 319 455 send gb-3;
#X obj 319 482 send gb-4;
#X obj 319 509 send gb-5;
#X obj 319 536 send gb-6;
#X obj 319 563 send gb-7;
#X obj 319 590 send gb-8;
#X obj 459 374 route 1 2 3 4 5 6 7 8;
#X obj 459 296 unpack f f;
#X obj 459 323 stripnote;
#X floatatom 459 350 5 0 0 0 - - -, f 5;
#X obj 599 374 route 1 2 3 4 5 6 7 8;
#X obj 599 296 unpack f f;
#X obj 599 323 stripnote;
#X floatatom 599 350 5 0 0 0 - - -, f 5;
#X obj 739 374 route 1 2 3 4 5 6 7 8;
#X obj 739 296 unpack f f;
#X obj 739 323 stripnote;
#X floatatom 739 350 5 0 0 0 - - -, f 5;
#X obj 879 374 route 1 2 3 4 5 6 7 8;
#X obj 879 296 unpack f f;
#X obj 879 323 stripnote;
#X floatatom 879 350 5 0 0 0 - - -, f 5;
#X obj 1019 374 route 1 2 3 4 5 6 7 8;
#X obj 1019 296 unpack f f;
#X obj 1019 323 stripnote;
#X floatatom 1019 350 5 0 0 0 - - -, f 5;
#X obj 1019 401 send 57-1;
#X obj 1019 429 send 57-2;
#X obj 1019 455 send 57-3;
#X obj 1019 482 send 57-4;
#X obj 1019 509 send 57-5;
#X obj 1019 536 send 57-6;
#X obj 1019 563 send 57-7;
#X obj 1019 590 send 57-8;
#X obj 879 401 send 56-1;
#X obj 879 429 send 56-2;
#X obj 879 455 send 56-3;
#X obj 879 482 send 56-4;
#X obj 879 509 send 56-5;
#X obj 879 536 send 56-6;
#X obj 879 563 send 56-7;
#X obj 879 590 send 56-8;
#X obj 739 401 send 55-1;
#X obj 739 429 send 55-2;
#X obj 739 455 send 55-3;
#X obj 739 482 send 55-4;
#X obj 739 509 send 55-5;
#X obj 739 536 send 55-6;
#X obj 739 563 send 55-7;
#X obj 739 590 send 55-8;
#X obj 599 401 send 54-1;
#X obj 599 429 send 54-2;
#X obj 599 455 send 54-3;
#X obj 599 482 send 54-4;
#X obj 599 509 send 54-5;
#X obj 599 536 send 54-6;
#X obj 599 563 send 54-7;
#X obj 599 590 send 54-8;
#X obj 459 401 send 53-1;
#X obj 459 429 send 53-2;
#X obj 459 455 send 53-3;
#X obj 459 482 send 53-4;
#X obj 459 509 send 53-5;
#X obj 459 536 send 53-6;
#X obj 459 563 send 53-7;
#X obj 459 590 send 53-8;
#X obj 19 153 route 48 49 50 52 53 54 55 56 57 81 82 83 84 85 86;
#X obj 317 31 unpack f f;
#X obj 317 58 stripnote;
#X floatatom 317 85 5 0 0 0 - - -, f 5;
#X obj 317 109 s b81;
#X obj 387 31 unpack f f;
#X obj 387 58 stripnote;
#X floatatom 387 85 5 0 0 0 - - -, f 5;
#X obj 457 31 unpack f f;
#X obj 457 58 stripnote;
#X floatatom 457 85 5 0 0 0 - - -, f 5;
#X obj 527 31 unpack f f;
#X obj 527 58 stripnote;
#X floatatom 527 85 5 0 0 0 - - -, f 5;
#X obj 597 31 unpack f f;
#X obj 597 58 stripnote;
#X floatatom 597 85 5 0 0 0 - - -, f 5;
#X obj 667 31 unpack f f;
#X obj 667 58 stripnote;
#X floatatom 667 85 5 0 0 0 - - -, f 5;
#X obj 387 109 s b82;
#X obj 457 109 s b83;
#X obj 527 109 s b84;
#X obj 597 109 s b85;
#X obj 667 109 s b86;
#X obj 19 374 _sender r 2;
#X obj 19 401 _sender r 3;
#X obj 19 428 _sender r 4;
#X obj 19 455 _sender r 5;
#X obj 19 482 _sender r 6;
#X obj 19 509 _sender r 7;
#X obj 19 536 _sender r 8;
#X obj 99 374 _sender b 1;
#X obj 99 401 _sender b 2;
#X obj 99 428 _sender b 3;
#X obj 99 455 _sender b 4;
#X obj 99 482 _sender b 5;
#X obj 99 509 _sender b 6;
#X obj 99 536 _sender b 7;
#X obj 99 563 _sender b 8;
#X obj 179 401 _sender g 1;
#X obj 179 428 _sender g 2;
#X obj 179 455 _sender g 3;
#X obj 179 482 _sender g 4;
#X obj 179 509 _sender g 5;
#X obj 179 536 _sender g 6;
#X obj 179 563 _sender g 7;
#X obj 179 590 _sender g 8;
#X connect 0 0 1 0;
#X connect 0 1 2 0;
#X connect 0 2 3 0;
#X connect 1 0 4 0;
#X connect 1 0 7 0;
#X connect 2 0 4 2;
#X connect 3 0 4 1;
#X connect 4 0 82 0;
#X connect 5 0 6 0;
#X connect 5 1 107 0;
#X connect 5 2 108 0;
#X connect 5 3 109 0;
#X connect 5 4 110 0;
#X connect 5 5 111 0;
#X connect 5 6 112 0;
#X connect 5 7 113 0;
#X connect 8 0 114 0;
#X connect 8 1 115 0;
#X connect 8 2 116 0;
#X connect 8 3 117 0;
#X connect 8 4 118 0;
#X connect 8 5 119 0;
#X connect 8 6 120 0;
#X connect 8 7 121 0;
#X connect 9 0 122 0;
#X connect 9 1 123 0;
#X connect 9 2 124 0;
#X connect 9 3 125 0;
#X connect 9 4 126 0;
#X connect 9 5 127 0;
#X connect 9 6 128 0;
#X connect 9 7 129 0;
#X connect 10 0 14 0;
#X connect 10 1 15 0;
#X connect 10 2 16 0;
#X connect 10 3 17 0;
#X connect 10 4 18 0;
#X connect 10 5 19 0;
#X connect 10 6 20 0;
#X connect 10 7 21 0;
#X connect 11 0 12 0;
#X connect 11 1 12 1;
#X connect 12 0 13 0;
#X connect 13 0 10 0;
#X connect 22 0 74 0;
#X connect 22 1 75 0;
#X connect 22 2 76 0;
#X connect 22 3 77 0;
#X connect 22 4 78 0;
#X connect 22 5 79 0;
#X connect 22 6 80 0;
#X connect 22 7 81 0;
#X connect 23 0 24 0;
#X connect 23 1 24 1;
#X connect 24 0 25 0;
#X connect 25 0 22 0;
#X connect 26 0 66 0;
#X connect 26 1 67 0;
#X connect 26 2 68 0;
#X connect 26 3 69 0;
#X connect 26 4 70 0;
#X connect 26 5 71 0;
#X connect 26 6 72 0;
#X connect 26 7 73 0;
#X connect 27 0 28 0;
#X connect 27 1 28 1;
#X connect 28 0 29 0;
#X connect 29 0 26 0;
#X connect 30 0 58 0;
#X connect 30 1 59 0;
#X connect 30 2 60 0;
#X connect 30 3 61 0;
#X connect 30 4 62 0;
#X connect 30 5 63 0;
#X connect 30 6 64 0;
#X connect 30 7 65 0;
#X connect 31 0 32 0;
#X connect 31 1 32 1;
#X connect 32 0 33 0;
#X connect 33 0 30 0;
#X connect 34 0 50 0;
#X connect 34 1 51 0;
#X connect 34 2 52 0;
#X connect 34 3 53 0;
#X connect 34 4 54 0;
#X connect 34 5 55 0;
#X connect 34 6 56 0;
#X connect 34 7 57 0;
#X connect 35 0 36 0;
#X connect 35 1 36 1;
#X connect 36 0 37 0;
#X connect 37 0 34 0;
#X connect 38 0 42 0;
#X connect 38 1 43 0;
#X connect 38 2 44 0;
#X connect 38 3 45 0;
#X connect 38 4 46 0;
#X connect 38 5 47 0;
#X connect 38 6 48 0;
#X connect 38 7 49 0;
#X connect 39 0 40 0;
#X connect 39 1 40 1;
#X connect 40 0 41 0;
#X connect 41 0 38 0;
#X connect 82 0 5 0;
#X connect 82 1 8 0;
#X connect 82 2 9 0;
#X connect 82 3 11 0;
#X connect 82 4 23 0;
#X connect 82 5 27 0;
#X connect 82 6 31 0;
#X connect 82 7 35 0;
#X connect 82 8 39 0;
#X connect 82 9 83 0;
#X connect 82 10 87 0;
#X connect 82 11 90 0;
#X connect 82 12 93 0;
#X connect 82 13 96 0;
#X connect 82 14 99 0;
#X connect 83 0 84 0;
#X connect 83 1 84 1;
#X connect 84 0 85 0;
#X connect 85 0 86 0;
#X connect 87 0 88 0;
#X connect 87 1 88 1;
#X connect 88 0 89 0;
#X connect 89 0 102 0;
#X connect 90 0 91 0;
#X connect 90 1 91 1;
#X connect 91 0 92 0;
#X connect 92 0 103 0;
#X connect 93 0 94 0;
#X connect 93 1 94 1;
#X connect 94 0 95 0;
#X connect 95 0 104 0;
#X connect 96 0 97 0;
#X connect 96 1 97 1;
#X connect 97 0 98 0;
#X connect 98 0 105 0;
#X connect 99 0 100 0;
#X connect 99 1 100 1;
#X connect 100 0 101 0;
#X connect 101 0 106 0;
#X restore 17 17 pd left-buttons;
#X obj 17 206 bng 25 250 50 0 empty gb-1 empty 17 7 0 10 -262144 -4034
-128992;
#X obj 47 206 bng 25 250 50 0 empty gb-2 empty 17 7 0 10 -262144 -4034
-128992;
#X obj 77 206 bng 25 250 50 0 empty gb-3 empty 17 7 0 10 -262144 -4034
-128992;
#X obj 107 206 bng 25 250 50 0 empty gb-4 empty 17 7 0 10 -262144 -4034
-128992;
#X obj 137 206 bng 25 250 50 0 empty gb-5 empty 17 7 0 10 -262144 -4034
-128992;
#X obj 167 206 bng 25 250 50 0 empty gb-6 empty 17 7 0 10 -262144 -4034
-128992;
#X obj 197 206 bng 25 250 50 0 empty gb-7 empty 17 7 0 10 -262144 -4034
-128992;
#X obj 227 206 bng 25 250 50 0 empty gb-8 empty 17 7 0 10 -262144 -4034
-128992;
#X obj 17 166 bng 25 250 50 0 empty 57-1 empty 17 7 0 10 -262144 -4034
-128992;
#X obj 47 166 bng 25 250 50 0 empty 57-2 empty 17 7 0 10 -262144 -4034
-128992;
#X obj 77 166 bng 25 250 50 0 empty 57-3 empty 17 7 0 10 -262144 -4034
-128992;
#X obj 107 166 bng 25 250 50 0 empty 57-4 empty 17 7 0 10 -262144 -4034
-128992;
#X obj 137 166 bng 25 250 50 0 empty 57-5 empty 17 7 0 10 -262144 -4034
-128992;
#X obj 167 166 bng 25 250 50 0 empty 57-6 empty 17 7 0 10 -262144 -4034
-128992;
#X obj 197 166 bng 25 250 50 0 empty 57-7 empty 17 7 0 10 -262144 -4034
-128992;
#X obj 227 166 bng 25 250 50 0 empty 57-8 empty 17 7 0 10 -262144 -4034
-128992;
#X obj 17 136 bng 25 250 50 0 empty 56-1 empty 17 7 0 10 -262144 -4034
-128992;
#X obj 47 136 bng 25 250 50 0 empty 56-2 empty 17 7 0 10 -262144 -4034
-128992;
#X obj 77 136 bng 25 250 50 0 empty 56-3 empty 17 7 0 10 -262144 -4034
-128992;
#X obj 107 136 bng 25 250 50 0 empty 56-4 empty 17 7 0 10 -262144 -4034
-128992;
#X obj 137 136 bng 25 250 50 0 empty 56-5 empty 17 7 0 10 -262144 -4034
-128992;
#X obj 167 136 bng 25 250 50 0 empty 56-6 empty 17 7 0 10 -262144 -4034
-128992;
#X obj 197 136 bng 25 250 50 0 empty 56-7 empty 17 7 0 10 -262144 -4034
-128992;
#X obj 227 136 bng 25 250 50 0 empty 56-8 empty 17 7 0 10 -262144 -4034
-128992;
#X obj 17 106 bng 25 250 50 0 empty 55-1 empty 17 7 0 10 -262144 -4034
-128992;
#X obj 17 76 bng 25 250 50 0 empty 54-1 empty 17 7 0 10 -262144 -4034
-128992;
#X obj 17 46 bng 25 250 50 0 empty 53-1 empty 17 7 0 10 -262144 -4034
-128992;
#X obj 47 106 bng 25 250 50 0 empty 55-2 empty 17 7 0 10 -262144 -4034
-128992;
#X obj 77 106 bng 25 250 50 0 empty 55-3 empty 17 7 0 10 -262144 -4034
-128992;
#X obj 107 106 bng 25 250 50 0 empty 55-4 empty 17 7 0 10 -262144 -4034
-128992;
#X obj 137 106 bng 25 250 50 0 empty 55-5 empty 17 7 0 10 -262144 -4034
-128992;
#X obj 167 106 bng 25 250 50 0 empty 55-6 empty 17 7 0 10 -262144 -4034
-128992;
#X obj 197 106 bng 25 250 50 0 empty 55-7 empty 17 7 0 10 -262144 -4034
-128992;
#X obj 227 106 bng 25 250 50 0 empty 55-8 empty 17 7 0 10 -262144 -4034
-128992;
#X obj 47 76 bng 25 250 50 0 empty 54-2 empty 17 7 0 10 -262144 -4034
-128992;
#X obj 77 76 bng 25 250 50 0 empty 54-3 empty 17 7 0 10 -262144 -4034
-128992;
#X obj 107 76 bng 25 250 50 0 empty 54-4 empty 17 7 0 10 -262144 -4034
-128992;
#X obj 137 76 bng 25 250 50 0 empty 54-5 empty 17 7 0 10 -262144 -4034
-128992;
#X obj 167 76 bng 25 250 50 0 empty 54-6 empty 17 7 0 10 -262144 -4034
-128992;
#X obj 197 76 bng 25 250 50 0 empty 54-7 empty 17 7 0 10 -262144 -4034
-128992;
#X obj 227 76 bng 25 250 50 0 empty 54-8 empty 17 7 0 10 -262144 -4034
-128992;
#X obj 47 46 bng 25 250 50 0 empty 53-2 empty 17 7 0 10 -262144 -4034
-128992;
#X obj 77 46 bng 25 250 50 0 empty 53-3 empty 17 7 0 10 -262144 -4034
-128992;
#X obj 107 46 bng 25 250 50 0 empty 53-4 empty 17 7 0 10 -262144 -4034
-128992;
#X obj 137 46 bng 25 250 50 0 empty 53-5 empty 17 7 0 10 -262144 -4034
-128992;
#X obj 167 46 bng 25 250 50 0 empty 53-6 empty 17 7 0 10 -262144 -4034
-128992;
#X obj 197 46 bng 25 250 50 0 empty 53-7 empty 17 7 0 10 -262144 -4034
-128992;
#X obj 227 46 bng 25 250 50 0 empty 53-8 empty 17 7 0 10 -262144 -4034
-128992;
#X obj 262 206 bng 25 250 50 0 empty b81 empty 17 7 0 10 -262144 -4034
-128992;
#X obj 262 166 bng 25 250 50 0 empty b86 empty 17 7 0 10 -262144 -4034
-128992;
#X obj 262 136 bng 25 250 50 0 empty b85 empty 17 7 0 10 -262144 -4034
-128992;
#X obj 262 106 bng 25 250 50 0 empty b84 empty 17 7 0 10 -262144 -4034
-128992;
#X obj 262 76 bng 25 250 50 0 empty b83 empty 17 7 0 10 -262144 -4034
-128992;
#X obj 262 46 bng 25 250 50 0 empty b82 empty 17 7 0 10 -262144 -4034
-128992;
#N canvas 321 124 490 462 sliders 0;
#X obj 18 17 ctlin;
#X floatatom 18 44 5 0 0 0 - - -, f 5;
#X floatatom 58 44 5 0 0 0 - - -, f 5;
#X floatatom 98 44 5 0 0 0 - - -, f 5;
#X obj 18 68 pack f f f;
#X obj 18 202 route 1 2 3 4 5 6 7 8;
#X obj 18 95 route 7 14 15 23;
#X obj 18 229 _sender-s bs 1;
#X obj 18 256 _sender-s bs 2;
#X obj 18 283 _sender-s bs 3;
#X obj 18 310 _sender-s bs 4;
#X obj 18 337 _sender-s bs 5;
#X obj 18 364 _sender-s bs 6;
#X obj 18 391 _sender-s bs 7;
#X obj 18 418 _sender-s bs 8;
#X obj 116 229 route 1;
#X obj 116 256 _sender-s bs 9;
#X obj 214 229 route 1;
#X obj 214 256 _sender-s bs 10;
#X msg 318 283 0;
#X obj 318 256 select 1 2 3 4 5 6 7 8 9;
#X msg 333 310 1;
#X msg 349 283 2;
#X msg 365 310 3;
#X msg 380 283 4;
#X msg 396 310 5;
#X msg 412 283 6;
#X msg 427 310 7;
#X msg 443 283 8;
#X obj 318 357 send green-toggler;
#X floatatom 318 232 5 0 0 0 - - -, f 5;
#X connect 0 0 1 0;
#X connect 0 1 2 0;
#X connect 0 2 3 0;
#X connect 1 0 4 2;
#X connect 2 0 4 0;
#X connect 3 0 4 1;
#X connect 4 0 6 0;
#X connect 5 0 7 0;
#X connect 5 1 8 0;
#X connect 5 2 9 0;
#X connect 5 3 10 0;
#X connect 5 4 11 0;
#X connect 5 5 12 0;
#X connect 5 6 13 0;
#X connect 5 7 14 0;
#X connect 6 0 5 0;
#X connect 6 1 15 0;
#X connect 6 2 17 0;
#X connect 6 3 30 0;
#X connect 15 0 16 0;
#X connect 17 0 18 0;
#X connect 19 0 29 0;
#X connect 20 0 19 0;
#X connect 20 1 21 0;
#X connect 20 2 22 0;
#X connect 20 3 23 0;
#X connect 20 4 24 0;
#X connect 20 5 25 0;
#X connect 20 6 26 0;
#X connect 20 7 27 0;
#X connect 20 8 28 0;
#X connect 21 0 29 0;
#X connect 22 0 29 0;
#X connect 23 0 29 0;
#X connect 24 0 29 0;
#X connect 25 0 29 0;
#X connect 26 0 29 0;
#X connect 27 0 29 0;
#X connect 28 0 29 0;
#X connect 30 0 20 0;
#X restore 17 507 pd sliders;
#X floatatom 416 338 5 0 0 0 - - -, f 5;
#X floatatom 467 338 5 0 0 0 - - -, f 5;
#X floatatom 507 338 5 0 0 0 - - -, f 5;
#X obj 314 48 knob 32 32 0 127 0 0 empty k48 empty 0 -8 0 8 -262144
-1 -1 0 1;
#X obj 364 48 knob 32 32 0 127 0 0 empty k49 empty 0 -8 0 8 -262144
-1 -1 0 1;
#X obj 414 48 knob 32 32 0 127 0 0 empty k50 empty 0 -8 0 8 -262144
-1 -1 0 1;
#X obj 464 48 knob 32 32 0 127 0 0 empty k51 empty 0 -8 0 8 -262144
-1 -1 0 1;
#X obj 314 98 knob 32 32 0 127 0 0 empty k52 empty 0 -8 0 8 -262144
-1 -1 391 1;
#X obj 364 98 knob 32 32 0 127 0 0 empty k53 empty 0 -8 0 8 -262144
-1 -1 0 1;
#X obj 414 98 knob 32 32 0 127 0 0 empty k54 empty 0 -8 0 8 -262144
-1 -1 0 1;
#X obj 464 98 knob 32 32 0 127 0 0 empty k55 empty 0 -8 0 8 -262144
-1 -1 0 1;
#X obj 314 186 knob 32 32 0 127 0 0 empty k16 empty 0 -8 0 8 -262144
-1 -1 0 1;
#X obj 364 186 knob 32 32 0 127 0 0 empty k17 empty 0 -8 0 8 -262144
-1 -1 0 1;
#X obj 414 186 knob 32 32 0 127 0 0 empty k18 empty 0 -8 0 8 -262144
-1 -1 0 1;
#X obj 464 186 knob 32 32 0 127 0 0 empty k19 empty 0 -8 0 8 -262144
-1 -1 0 1;
#X obj 314 236 knob 32 32 0 127 0 0 empty k20 empty 0 -8 0 8 -262144
-1 -1 220 1;
#X obj 364 236 knob 32 32 0 127 0 0 empty k21 empty 0 -8 0 8 -262144
-1 -1 610 1;
#X obj 414 236 knob 32 32 0 127 0 0 empty k22 empty 0 -8 0 8 -262144
-1 -1 586 1;
#X obj 464 236 knob 32 32 0 127 0 0 empty k23 empty 0 -8 0 8 -262144
-1 -1 0 1;
#N canvas 792 74 480 559 knobs 1;
#X obj 18 39 ctlin;
#X floatatom 18 66 5 0 0 0 - - -, f 5;
#X floatatom 58 66 5 0 0 0 - - -, f 5;
#X floatatom 98 66 5 0 0 0 - - -, f 5;
#X obj 18 100 pack f f f;
#X obj 206 211 s k20;
#X obj 206 238 s k21;
#X obj 206 265 s k22;
#X obj 206 292 s k23;
#X obj 206 319 s k16;
#X obj 206 346 s k17;
#X obj 206 373 s k18;
#X obj 206 400 s k19;
#X obj 206 184 route 20 21 22 23 16 17 18 19;
#X obj 18 184 route 52 53 54 55 48 49 50 51;
#X obj 18 211 s k52;
#X obj 18 238 s k53;
#X obj 18 265 s k54;
#X obj 18 292 s k55;
#X obj 18 319 s k48;
#X obj 18 346 s k49;
#X obj 18 373 s k59;
#X obj 18 400 s k51;
#X obj 18 127 route 1 2 3 4 5 6 7 8 9;
#X connect 0 0 1 0;
#X connect 0 1 2 0;
#X connect 0 2 3 0;
#X connect 1 0 4 2;
#X connect 2 0 4 1;
#X connect 3 0 4 0;
#X connect 4 0 23 0;
#X connect 13 0 5 0;
#X connect 13 1 6 0;
#X connect 13 2 7 0;
#X connect 13 3 8 0;
#X connect 13 4 9 0;
#X connect 13 5 10 0;
#X connect 13 6 11 0;
#X connect 13 7 12 0;
#X connect 14 0 15 0;
#X connect 14 1 16 0;
#X connect 14 2 17 0;
#X connect 14 3 18 0;
#X connect 14 4 19 0;
#X connect 14 5 20 0;
#X connect 14 6 21 0;
#X connect 14 7 22 0;
#X connect 23 0 14 0;
#X connect 23 0 13 0;
#X restore 446 17 pd knobs;
#X connect 1 0 111 0;
#X connect 1 1 112 0;
#X connect 1 2 113 0;
#X connect 2 0 3 0;
#X connect 2 1 0 0;
#X connect 3 0 7 0;
#X connect 5 0 8 0;
#X connect 6 0 5 0;
#X connect 6 1 4 0;
#X connect 6 2 19 0;
#X connect 9 0 20 0;
#X connect 10 0 21 0;
#X connect 11 0 22 0;
#X connect 12 0 23 0;
#X connect 13 0 24 0;
#X connect 14 0 25 0;
#X connect 15 0 26 0;
#X connect 16 0 27 0;
#X connect 17 0 28 0;
#X connect 18 0 29 0;
#X connect 111 0 2 0;
#X connect 112 0 2 1;
